<svg xmlns="http://www.w3.org/2000/svg" viewBox="0 0 600 600"><rect width="600" height="600" fill="#F4F2EE"/><g transform="translate(0 24)"><g fill="#111111"><path d="M 112 330 C 140 364 186 398 246 400 C 286 402 304 388 298 364 C 292 344 272 334 250 330 C 206 318 168 306 144 312 C 128 316 118 322 112 330 Z"/><path d="M 286.1 339.7 L 281.0 338.1 L 276.2 336.4 L 271.6 334.5 L 267.2 332.5 L 262.8 330.3 L 258.5 327.9 L 254.4 325.3 L 250.4 322.6 L 246.6 319.8 L 242.9 316.8 L 239.3 313.7 L 235.9 310.5 L 232.6 307.2 L 229.5 303.7 L 226.5 300.2 L 223.8 296.5 L 221.1 292.8 L 218.7 289.0 L 216.4 285.1 L 214.3 281.2 L 212.3 277.2 L 210.6 273.1 L 209.0 269.1 L 207.7 265.0 L 206.5 260.8 L 205.5 256.7 L 204.7 252.5 L 204.1 248.4 L 203.8 244.3 L 203.6 240.1 L 203.6 236.0 L 203.9 231.9 L 204.3 227.9 L 205.0 223.9 L 205.9 219.9 L 207.0 216.0 L 208.4 212.2 L 210.0 208.3 L 211.8 204.6 L 213.8 201.0 L 215.6 198.3 L 217.6 195.6 L 219.7 193.0 L 221.9 190.6 L 224.1 188.4 L 226.4 186.4 L 228.6 184.5 L 231.0 182.7 L 233.3 181.2 L 235.7 179.7 L 238.0 178.5 L 240.4 177.3 L 242.8 176.4 L 245.2 175.5 L 247.6 174.8 L 249.9 174.3 L 252.3 173.8 L 254.6 173.6 L 256.9 173.4 L 259.1 173.4 L 261.3 173.5 L 263.4 173.7 L 265.4 174.0 L 267.4 174.5 L 269.3 175.0 L 271.2 175.7 L 272.9 176.5 L 274.6 177.4 L 276.2 178.4 L 277.7 179.5 L 279.1 180.6 L 280.4 181.9 L 281.5 183.3 L 282.6 184.8 L 283.6 186.5 L 284.4 188.2 L 285.2 190.0 L 285.8 192.0 L 286.2 194.1 L 286.5 196.5 L 297.5 195.5 L 297.3 192.6 L 296.9 189.6 L 296.2 186.7 L 295.4 184.0 L 294.3 181.3 L 293.1 178.7 L 291.6 176.3 L 290.0 174.0 L 288.2 171.8 L 286.2 169.8 L 284.1 167.9 L 281.8 166.2 L 279.4 164.7 L 276.9 163.3 L 274.3 162.1 L 271.6 161.1 L 268.8 160.2 L 265.9 159.5 L 262.9 159.0 L 259.9 158.6 L 256.8 158.5 L 253.7 158.5 L 250.6 158.6 L 247.4 159.0 L 244.1 159.5 L 240.9 160.2 L 237.7 161.1 L 234.4 162.2 L 231.2 163.5 L 228.0 165.0 L 224.8 166.7 L 221.6 168.6 L 218.5 170.6 L 215.4 172.9 L 212.3 175.4 L 209.4 178.0 L 206.5 180.9 L 203.7 184.0 L 201.0 187.3 L 198.2 191.0 L 195.4 195.6 L 192.9 200.2 L 190.7 205.0 L 188.8 209.8 L 187.2 214.7 L 185.9 219.6 L 184.8 224.7 L 184.0 229.8 L 183.5 234.9 L 183.2 240.0 L 183.2 245.2 L 183.5 250.3 L 184.0 255.5 L 184.8 260.6 L 185.8 265.8 L 187.0 270.9 L 188.5 275.9 L 190.2 280.9 L 192.1 285.9 L 194.2 290.8 L 196.6 295.7 L 199.2 300.5 L 202.0 305.2 L 205.0 309.8 L 208.1 314.3 L 211.5 318.7 L 215.1 323.0 L 218.9 327.1 L 222.9 331.1 L 227.1 335.0 L 231.4 338.8 L 235.9 342.4 L 240.6 345.8 L 245.5 349.1 L 250.6 352.1 L 255.8 355.0 L 261.1 357.7 L 266.7 360.2 L 272.4 362.4 L 277.9 364.3 Z M 295.0 352.0 a 13.0 13.0 0 1 0 -26.0 0 a 13.0 13.0 0 1 0 26.0 0 Z M 297.5 196.0 a 5.5 5.5 0 1 0 -11.0 0 a 5.5 5.5 0 1 0 11.0 0 Z"/><ellipse cx="289" cy="200" rx="13" ry="10" transform="rotate(70 289 200)"/></g><g fill="#6B1526" transform="translate(600 0) scale(-1 1)"><path d="M 112 330 C 140 364 186 398 246 400 C 286 402 304 388 298 364 C 292 344 272 334 250 330 C 206 318 168 306 144 312 C 128 316 118 322 112 330 Z"/><path d="M 286.1 339.7 L 281.0 338.1 L 276.2 336.4 L 271.6 334.5 L 267.2 332.5 L 262.8 330.3 L 258.5 327.9 L 254.4 325.3 L 250.4 322.6 L 246.6 319.8 L 242.9 316.8 L 239.3 313.7 L 235.9 310.5 L 232.6 307.2 L 229.5 303.7 L 226.5 300.2 L 223.8 296.5 L 221.1 292.8 L 218.7 289.0 L 216.4 285.1 L 214.3 281.2 L 212.3 277.2 L 210.6 273.1 L 209.0 269.1 L 207.7 265.0 L 206.5 260.8 L 205.5 256.7 L 204.7 252.5 L 204.1 248.4 L 203.8 244.3 L 203.6 240.1 L 203.6 236.0 L 203.9 231.9 L 204.3 227.9 L 205.0 223.9 L 205.9 219.9 L 207.0 216.0 L 208.4 212.2 L 210.0 208.3 L 211.8 204.6 L 213.8 201.0 L 215.6 198.3 L 217.6 195.6 L 219.7 193.0 L 221.9 190.6 L 224.1 188.4 L 226.4 186.4 L 228.6 184.5 L 231.0 182.7 L 233.3 181.2 L 235.7 179.7 L 238.0 178.5 L 240.4 177.3 L 242.8 176.4 L 245.2 175.5 L 247.6 174.8 L 249.9 174.3 L 252.3 173.8 L 254.6 173.6 L 256.9 173.4 L 259.1 173.4 L 261.3 173.5 L 263.4 173.7 L 265.4 174.0 L 267.4 174.5 L 269.3 175.0 L 271.2 175.7 L 272.9 176.5 L 274.6 177.4 L 276.2 178.4 L 277.7 179.5 L 279.1 180.6 L 280.4 181.9 L 281.5 183.3 L 282.6 184.8 L 283.6 186.5 L 284.4 188.2 L 285.2 190.0 L 285.8 192.0 L 286.2 194.1 L 286.5 196.5 L 297.5 195.5 L 297.3 192.6 L 296.9 189.6 L 296.2 186.7 L 295.4 184.0 L 294.3 181.3 L 293.1 178.7 L 291.6 176.3 L 290.0 174.0 L 288.2 171.8 L 286.2 169.8 L 284.1 167.9 L 281.8 166.2 L 279.4 164.7 L 276.9 163.3 L 274.3 162.1 L 271.6 161.1 L 268.8 160.2 L 265.9 159.5 L 262.9 159.0 L 259.9 158.6 L 256.8 158.5 L 253.7 158.5 L 250.6 158.6 L 247.4 159.0 L 244.1 159.5 L 240.9 160.2 L 237.7 161.1 L 234.4 162.2 L 231.2 163.5 L 228.0 165.0 L 224.8 166.7 L 221.6 168.6 L 218.5 170.6 L 215.4 172.9 L 212.3 175.4 L 209.4 178.0 L 206.5 180.9 L 203.7 184.0 L 201.0 187.3 L 198.2 191.0 L 195.4 195.6 L 192.9 200.2 L 190.7 205.0 L 188.8 209.8 L 187.2 214.7 L 185.9 219.6 L 184.8 224.7 L 184.0 229.8 L 183.5 234.9 L 183.2 240.0 L 183.2 245.2 L 183.5 250.3 L 184.0 255.5 L 184.8 260.6 L 185.8 265.8 L 187.0 270.9 L 188.5 275.9 L 190.2 280.9 L 192.1 285.9 L 194.2 290.8 L 196.6 295.7 L 199.2 300.5 L 202.0 305.2 L 205.0 309.8 L 208.1 314.3 L 211.5 318.7 L 215.1 323.0 L 218.9 327.1 L 222.9 331.1 L 227.1 335.0 L 231.4 338.8 L 235.9 342.4 L 240.6 345.8 L 245.5 349.1 L 250.6 352.1 L 255.8 355.0 L 261.1 357.7 L 266.7 360.2 L 272.4 362.4 L 277.9 364.3 Z M 295.0 352.0 a 13.0 13.0 0 1 0 -26.0 0 a 13.0 13.0 0 1 0 26.0 0 Z M 297.5 196.0 a 5.5 5.5 0 1 0 -11.0 0 a 5.5 5.5 0 1 0 11.0 0 Z"/><ellipse cx="289" cy="200" rx="13" ry="10" transform="rotate(70 289 200)"/></g></g></svg>
